<?xml version='1.0' encoding='utf-8'?>
<svg xmlns="http://www.w3.org/2000/svg" id="Ebene_1" data-name="Ebene 1" viewBox="0 0 800 800"><defs><clipPath id="clip-path"><circle cx="400" cy="400" r="400" style="fill:none"/></clipPath><linearGradient id="Unbenannter_Verlauf_5" x1="408.4294" y1="371.0961" x2="148.4225" y2="631.1031" gradientUnits="userSpaceOnUse"><stop offset="0"/><stop offset="1" stop-opacity="0"/></linearGradient></defs><title>essen</title><circle cx="400" cy="400" r="400" style="fill:#1c8adb"/><g style="clip-path:url(#clip-path)"><path d="M320.6445,795.9779,486.0093,630.6132a12.2471,12.2471,0,0,0,4.3882-9.7968l-7.8415-262.074,20.3922-20.41c16.9207-16.4794,28.0055-43.8993,28.0055-74.9606,0-50.396-29.1575-91.25-65.125-91.25-14.4275,0-27.7567,6.578-38.55,17.704l-63.179,63.1719-.54-20.8783-1.5848-61.244a4.2378,4.2378,0,0,0-7.8975-2.149l-18.4335,18.29-.419-16.1412a4.2378,4.2378,0,0,0-7.8975-2.149l-18.4335,18.29-.419-16.1412a4.2378,4.2378,0,0,0-7.8975-2.149l-18.4334,18.29-.419-16.1411a4.2378,4.2378,0,0,0-7.8975-2.149L1.37,441.1827C15.2129,655.68,122.2208,773.7593,320.6445,795.9779Z" style="opacity:0.42;fill:url(#Unbenannter_Verlauf_5)"/><path d="M365.0893,291.25l-1.53-59.131-1.5848-61.244a4.25,4.25,0,0,0-8.5,0L350.3494,291.25a6,6,0,0,1-12,0l-3.1249-120.375a4.25,4.25,0,0,0-8.5,0L323.5994,291.25a6,6,0,0,1-12,0l-3.1249-120.375a4.25,4.25,0,0,0-8.5,0L296.8494,291.25a6,6,0,0,1-12,0l-3.1249-120.375a4.25,4.25,0,0,0-8.5,0l-2.5571,98.6588-1.6208,62.5343,0,.0006v.0044a22.5526,22.5526,0,0,0,22.5526,22.5483h8.8658l-10.5,266.3127a11.9694,11.9694,0,0,0,11.96,12.441h25.21a11.9694,11.9694,0,0,0,11.9639-12.3339l-8.1167-266.42H343.6a22.5527,22.5527,0,0,0,22.5526-22.5527Z" style="fill:#fff"/><path d="M530.9537,263.3713c0-50.396-29.1575-91.25-65.125-91.25s-65.125,40.854-65.125,91.25c0,43.5728,21.7982,80.0065,50.9473,89.075l-10.3873,268.261a12.09,12.09,0,0,0,11.96,12.6677h25.21a12.0879,12.0879,0,0,0,11.9639-12.5587L482.344,351.6577C510.3135,341.4139,530.9537,305.7715,530.9537,263.3713Z" style="fill:#fff"/></g></svg>