<?xml version="1.0" encoding="UTF-8"?>
<svg width="186.27mm" height="131.03mm" version="1.1" viewBox="0 0 659.99999 464.28568" xmlns="http://www.w3.org/2000/svg">
 <g transform="translate(-12.857 -231.65)">
  <rect x="12.857" y="231.65" width="660" height="464.29" ry="0" fill="#fff" fill-rule="evenodd"/>
  <rect transform="matrix(-.70711 .70711 .70711 .70711 0 0)" x="164.72" y="689.37" width="11.472" height="59.144" ry="1.9799" fill="#424242" fill-rule="evenodd"/>
  <rect x="56.187" y="410" width="160.46" height="34.776" ry=".17834" fill="#bcaaa4" fill-rule="evenodd"/>
  <rect x="55.177" y="251.41" width="356.43" height="42.857" ry=".21978" fill="#ffb300" fill-rule="evenodd"/>
  <path d="m481.65 438.82-11.018 3.2794-6.2961 9.2917 2.6234 4.3726 3.5416-0.27328 11.936 0.13663-0.39351-5.1924 1.9675-0.54659 3.5416-7.7886z" fill="#f95" fill-rule="evenodd"/>
  <path d="m537.72 372.7-8.255 30.252-51.747 39.02 7.2743 4.3879 50.027-18.25c2.2488-1.1458 9.2716-6.502 10.951-8.2174l13.87-37.941z" fill="#f95" fill-rule="evenodd"/>
  <ellipse cx="547.09" cy="661.27" rx="98.844" ry="14.976" fill="#90a4ae" fill-rule="evenodd"/>
  <path d="m564.03 311.07 2.5366 18.736-24.672 8.713 7.6528-8.7846-1.0694-14.175z" fill="#ffb380" fill-rule="evenodd"/>
  <path d="m587.75 446.77 1.8243 13.265-4.2306 11.655c-2.5129 27.07-2.7005 54.473 0.4296 82.35l34.521 66.153 3.9241 2.7951c6.5579 7.5016-2.7232 11.332-10.987 13.586l-49.534-64.613-6.6228-15.151-8.4089-52.796-5.4384-41.941z" fill="#4d4d4d" fill-rule="evenodd"/>
  <rect x="50.376" y="438.92" width="365.25" height="146.32" ry="4.2783" fill="#ffb300" fill-rule="evenodd"/>
  <rect x="286.51" y="418.24" width="100.32" height="27.528" ry=".5637" fill="#90a4ae" fill-rule="evenodd"/>
  <path d="m229.86 376.73h16.216c5.1266 23.346 5.2218 46.925 5.4181 70.038h-24.338c-1.3197-25.4-0.6765-46.102 2.7042-70.038z" fill="#f44336" fill-rule="evenodd"/>
  <rect x="50.376" y="438.92" width="365.25" height="15.093" ry=".44131" fill="#a05a2c" fill-rule="evenodd"/>
  <rect x="371.25" y="583.17" width="14.823" height="55.319" ry="1.5023" fill="#424242" fill-rule="evenodd"/>
  <rect x="50.376" y="572.61" width="365.25" height="13.483" ry=".39423" fill="#a05a2c" fill-rule="evenodd"/>
  <path d="m155.9 507.38a86.421 86.421 0 0 0 -86.423 86.42 86.421 86.421 0 0 0 86.423 86.423 86.421 86.421 0 0 0 86.42 -86.423 86.421 86.421 0 0 0 -86.42 -86.42zm0 14.974a71.447 71.447 0 0 1 71.447 71.447 71.447 71.447 0 0 1 -71.447 71.449 71.447 71.447 0 0 1 -71.449 -71.449 71.447 71.447 0 0 1 71.449 -71.447z" fill="#424242" fill-rule="evenodd"/>
  <circle cx="155.9" cy="593.8" r="17.113" fill="#424242" fill-opacity=".63128" fill-rule="evenodd"/>
  <circle cx="155.9" cy="593.8" r="12.193" fill="#424242" fill-rule="evenodd"/>
  <rect x="395.78" y="443.16" width="96.248" height="12.878" ry=".37654" fill="#a05a2c" fill-rule="evenodd"/>
  <rect x="283.14" y="411.21" width="106.75" height="16.517" ry=".5637" fill="#78909c" fill-rule="evenodd"/>
  <rect x="153" y="515.51" width="5.7819" height="156.58" ry=".47625" fill="#424242" fill-rule="evenodd"/>
  <rect transform="rotate(90)" x="590.91" y="-234.19" width="5.7819" height="156.58" ry=".47625" fill="#424242" fill-rule="evenodd"/>
  <rect transform="matrix(-.70711 .70711 -.70711 -.70711 0 0)" x="306.75" y="-608.41" width="5.7819" height="156.58" ry=".47625" fill="#424242" fill-rule="evenodd"/>
  <rect transform="matrix(-.70711 -.70711 .70711 -.70711 0 0)" x="-533" y="-387.94" width="5.7819" height="156.58" ry=".47625" fill="#424242" fill-rule="evenodd"/>
  <rect transform="matrix(-.70711 -.70711 .70711 -.70711 0 0)" x="-533" y="-387.94" width="5.7819" height="156.58" ry=".47625" fill="#424242" fill-rule="evenodd"/>
  <path d="m539.11 454.26-25.513 86.983-0.75975 18.393v87.169l3.767 2.2255 9.5259 0.15268 1.1217 2.9622 4.084-1.0287 8.8524-87.482 3.039-15.195 35.091-69.183 2.3257-33.181z" fill="#808080" fill-rule="evenodd"/>
  <path d="m622.58 621.53c-0.24137 9.5347-4.0718 12.141-11.429 14.275-0.47999 3.6846-0.33581 6.0869-1.003 8.506-2.8714 5.7248-5.9812 10.15-15.192 13.006-0.63409 2.0896-0.63323 5.0425-1.3711 7.0251 21.946 0.67961 31.15-18.244 41.14-32.606-3.1354-4.1472-4.1822-6.2447-12.144-10.206z" fill="#784421" fill-rule="evenodd"/>
  <path d="m569.06 322.92c-16.083 4.9867-8.041 11.066-27.202 14.269-17.679 44.484-1.6797 99.866-13.047 127.19 1.4736 1.7438 19.225 10.641 21.301 10.647 31.659 0.0891 27.087 3.2675 42.418-15.221-17.902-40.185 0.38754-93.586-23.47-136.88z" fill="#8d6e63" fill-rule="evenodd"/>
  <path d="m543.23 374.17-12.296 34.924-51.747 34.348 7.2743 4.3879 50.027-18.25c2.2488-1.1458 9.2716-6.502 10.951-8.2174l13.87-37.941z" fill="#ffb380" fill-rule="evenodd"/>
  <path d="m562.22 338.92c-4.5585-0.45631-9.117 0.7002-13.675 4.7983l-11.396 34.388 27.351 19.993 8.3572-42.385c-1.3642-6.9614-4.7107-12.684-10.636-16.794z" fill="#6d4c41" fill-rule="evenodd"/>
  <path d="m483.12 440.28-11.018 3.2794-6.2961 9.2917 2.6234 4.3726 3.5416-0.27328 11.936 0.13664-0.39351-5.1924 1.9675-0.54658 3.5416-7.7886z" fill="#ffb380" fill-rule="evenodd"/>
  <path d="m533.87 291.31c-0.19552 3.2241 0.92306 4.6536 1.6625 6.6008-1.5094 4.4032-2.3468 8.3474-2.8501 12.064l4.0376 0.45523-0.71253 4.0971 2.1376 3.6418c-0.99976 2.0905-2.15 4.2572-0.95003 5.2351 7.521 2.5972 15.042 0.45522 22.563 0.68283l6.4127-9.7874 1.425-19.802s-5.2574-8.2354-6.445-8.463c-1.1875-0.22763-17.527-4.9925-17.527-4.9925l-10.137 6.6271z" fill="#ffb380" fill-rule="evenodd"/>
  <path d="m540.55 282.63c-3.9978 3.5288-7.8094 5.6457-6.543 9.1745l11.742-1.1756 4.1575 4.3088c0.88606-0.0828 1.7259 9.1221 2.5091 9.1186 0.67426-2e-3 1.3065-9.2262 1.89-9.1528 4.422 0.5561 6.0431 3.5398 1.9375 12.502l1.3852 0.0291 1.8029 0.0379 2.5353 6.8935 4.8636 9.0951c1.2229-4.7638 3.5438-17.521 4.8643-35.971-2.0515-1.5487-1.0936-4.6717-3.8434-3.9955-10.28-5.8459-16.371-1.2354-27.301-0.86496z" fill="#424242" fill-rule="evenodd"/>
  <path d="m536.21 313.37c5.3443-1.004 11.615-2.5365 11.615-2.5365-3.0004 2.8944-6.1003 5.6304-10.094 6.9422l-1.741-3.2255z" fill="#fff" fill-rule="evenodd"/>
  <path d="m537.67 295.98c2.7929-1.3678 5.7225-2.2769 9.144-1.5364" fill="none" stroke="#000" stroke-width="1.302px"/>
  <ellipse cx="540.67" cy="297.91" rx="1.7516" ry="1.5364" fill="#1a1a1a" fill-rule="evenodd"/>
  <path d="m531.93 644.2c-7.1253 6.3403-12.151 4.7574-18.737 0.84474-4.5475 3.383-4.9505 5.8236-11.275 5.7305-5.9873 0.98919-11.892 0.94238-18.449 1.2942-2.342 0.71311-3.3206 5.2814-4.0055 6.547 21.199 4.2062 37.074 6.3837 53.614 4.0704 0.88455-5.1233 1.4018-9.9671-1.1476-18.487z" fill="#784421" fill-rule="evenodd"/>
  <rect x="27.143" y="242.96" width="564.25" height="15.093" ry=".44131" fill="#a05a2c" fill-rule="evenodd"/>
  <rect x="50.376" y="247.18" width="10.965" height="338.06" ry="9.8848" fill="#a05a2c" fill-rule="evenodd"/>
  <rect x="404.66" y="247.18" width="10.965" height="338.06" ry="9.8848" fill="#a05a2c" fill-rule="evenodd"/>
  <path d="m403.14 614.53a29.853 29.853 0 0 0 -29.853 29.853 29.853 29.853 0 0 0 29.853 29.853 29.853 29.853 0 0 0 29.853 -29.853 29.853 29.853 0 0 0 -29.853 -29.853zm0 5.1725a24.68 24.68 0 0 1 24.68 24.68 24.68 24.68 0 0 1 -24.68 24.681 24.68 24.68 0 0 1 -24.681 -24.681 24.68 24.68 0 0 1 24.681 -24.68z" fill="#424242" fill-rule="evenodd"/>
  <circle cx="403.14" cy="644.39" r="5.9114" fill="#424242" fill-opacity=".63128" fill-rule="evenodd"/>
  <circle cx="403.14" cy="644.39" r="4.2119" fill="#424242" fill-rule="evenodd"/>
  <rect x="402.14" y="617.34" width="1.9973" height="54.09" ry=".16451" fill="#424242" fill-rule="evenodd"/>
  <rect transform="rotate(90)" x="643.39" y="-430.18" width="1.9973" height="54.09" ry=".16451" fill="#424242" fill-rule="evenodd"/>
  <rect transform="matrix(-.70711 .70711 -.70711 -.70711 0 0)" x="169.59" y="-767.75" width="1.9973" height="54.09" ry=".16451" fill="#424242" fill-rule="evenodd"/>
  <rect transform="matrix(-.70711 -.70711 .70711 -.70711 0 0)" x="-741.71" y="-197.64" width="1.9973" height="54.09" ry=".16451" fill="#424242" fill-rule="evenodd"/>
  <rect transform="matrix(-.70711 -.70711 .70711 -.70711 0 0)" x="-741.71" y="-197.64" width="1.9973" height="54.09" ry=".16451" fill="#424242" fill-rule="evenodd"/>
  <rect x="52.143" y="290.81" width="359.97" height="10.093" ry=".29511" fill="#a05a2c" fill-rule="evenodd"/>
  <path d="m283.6 412.48h106.07l-50.714-36.754c-2.1631-1.5644-4.5043-1.8496-7.1429 0z" fill="#78909c" fill-rule="evenodd"/>
  <path d="m335.61 362.95a11.301 11.301 0 0 0 -11.301 11.301 11.301 11.301 0 0 0 11.301 11.301 11.301 11.301 0 0 0 11.301 -11.301 11.301 11.301 0 0 0 -11.301 -11.301zm0.0898 2.5a8.8904 8.8904 0 0 1 8.8906 8.8887 8.8904 8.8904 0 0 1 -8.8906 8.8906 8.8904 8.8904 0 0 1 -8.8906 -8.8906 8.8904 8.8904 0 0 1 8.8906 -8.8887z" fill="#78909c" fill-rule="evenodd"/>
  <path d="m287.35 408.89-2.4219 2.3144h103.34l-2.5332-2.3008h-98.25c-0.0468 0-0.0906-0.0111-0.13672-0.0137z" fill="#90a4ae" fill-rule="evenodd"/>
  <rect x="210.35" y="247.18" width="10.965" height="202.35" ry="5.9166" fill="#a05a2c" fill-rule="evenodd"/>
  <rect transform="scale(-1,1)" x="-263.47" y="399.08" width="6.9248" height="50.446" ry="1.475" fill="#a05a2c" fill-rule="evenodd"/>
  <rect transform="matrix(0,1,1,0,0,0)" x="399.19" y="213.38" width="6.9248" height="48.552" ry="1.4196" fill="#a05a2c" fill-rule="evenodd"/>
  <path d="m232.13 377.46 1.1171-4.9993h9.3349l1.2296 5.7365z" fill="#f44336" fill-rule="evenodd"/>
  <path d="m236.05 373.04 0.69168-5.8979h1.8445l0.61482 5.8979z" fill="#f44336" fill-rule="evenodd"/>
  <path d="m229.86 376.73 16.086 0.0651 0.27171 0.91229-16.52 0.0651z" fill="#d32f2f" fill-rule="evenodd"/>
  <path d="m233.24 372.49 9.3184-0.0231 0.15372 0.78332-9.6258 0.046z" fill="#d32f2f" fill-rule="evenodd"/>
  <path d="m236.74 367.15h1.8253l0.0769 0.69117-1.979 0.0115z" fill="#d32f2f" fill-rule="evenodd"/>
  <rect x="50.376" y="406.6" width="165.24" height="7.5166" ry=".21978" fill="#a05a2c" fill-rule="evenodd"/>
  <circle cx="134.19" cy="426.5" r="6.3393" fill="#784421" fill-rule="evenodd"/>
  <circle cx="133.66" cy="427.03" r="4.7321" fill="#a05a2c" fill-rule="evenodd"/>
  <path d="m74.92 406.47h31.49l3.1694-4.2857 8.813-4.5869h-54.373l8.3197 4.6762z" fill="#90a4ae" fill-rule="evenodd"/>
  <path d="m74.92 398.61h31.49l3.1694-4.2857 8.813-4.5869h-54.373l8.3197 4.6762z" fill="#90a4ae" fill-rule="evenodd"/>
  <path d="m74.92 390.93h31.49l3.1694-4.2857 8.813-4.5869h-54.373l8.3197 4.6762z" fill="#90a4ae" fill-rule="evenodd"/>
  <path d="m74.92 383.43h31.49l3.1694-4.2857 8.813-4.5869h-54.373l8.3197 4.6762z" fill="#90a4ae" fill-rule="evenodd"/>
  <path d="m74.92 375.58h31.49l3.1694-4.2857 8.813-4.5869h-54.373l8.3197 4.6762z" fill="#90a4ae" fill-rule="evenodd"/>
  <path d="m74.92 367.9h31.49l3.1694-4.2857 8.813-4.5869h-54.373l8.3197 4.6762z" fill="#90a4ae" fill-rule="evenodd"/>
  <path d="m74.92 360.4h31.49l3.1694-4.2857 8.813-4.5869h-54.373l8.3197 4.6762z" fill="#90a4ae" fill-rule="evenodd"/>
  <path d="m140.51 370c-1.2536 0.60546-2.1211 1.8768-2.1211 3.3672v28.572c0 2.0774 1.6726 3.75 3.75 3.75h49.285c2.0774 0 3.75-1.6726 3.75-3.75v-28.572c0-1.3723-0.73782-2.5555-1.832-3.209a31.946 2.3991 0 0 1 -25.701 0.97851 31.946 2.3991 0 0 1 -27.131 -1.1367z" fill="#90a4ae" fill-rule="evenodd"/>
  <rect transform="matrix(-.52257 .8526 .91138 .41157 0 0)" x="284.69" y="305.24" width="2.6224" height="18.057" ry=".49036" fill="#90a4ae" fill-rule="evenodd"/>
  <rect transform="matrix(.52257 .8526 -.91138 .41157 0 0)" x="423.16" y="18.403" width="2.6224" height="18.057" ry=".49036" fill="#90a4ae" fill-rule="evenodd"/>
  <rect x="200.68" y="310.98" width="2.4331" height="41.405" ry=".88388" fill="#90a4ae" fill-rule="evenodd"/>
  <rect x="204.52" y="310.98" width="1.2454" height="6.1372" ry=".41928" fill="#90a4ae" fill-rule="evenodd"/>
  <rect x="201.58" y="310.98" width="3.5938" height="1.3344" ry=".43025" fill="#90a4ae" fill-rule="evenodd"/>
  <path d="m202.31 347.66c4.131 7.9888-5.231 15.817-12.465 8.6195z" fill="#90a4ae" fill-rule="evenodd"/>
  <rect x="203.79" y="313.1" width="7.7232" height="1.7857" ry=".43025" fill="#a05a2c" fill-rule="evenodd"/>
  <rect x="388.39" y="295.34" width="2.2321" height="31.071" ry=".37406" fill="#90a4ae" fill-rule="evenodd"/>
  <rect x="373.39" y="295.34" width="2.5" height="41.607" ry=".37406" fill="#90a4ae" fill-rule="evenodd"/>
  <path d="m373.34 335.66 0.10143 6.1876c5.3456 0.52812 3.8826-21.916 3.8996-23.739l-2.612-1.6415z" fill="#90a4ae" fill-rule="evenodd"/>
  <rect x="386.34" y="324.17" width="6.5179" height="5.1786" ry=".37406" fill="#90a4ae" fill-rule="evenodd"/>
  <rect x="386.34" y="327.75" width="1.1607" height="4.1964" ry=".37406" fill="#90a4ae" fill-rule="evenodd"/>
  <rect x="391.65" y="327.75" width="1.1607" height="4.1964" ry=".37406" fill="#90a4ae" fill-rule="evenodd"/>
  <rect x="388.12" y="327.75" width="1.1607" height="10.893" ry=".97096" fill="#90a4ae" fill-rule="evenodd"/>
  <rect x="389.95" y="327.75" width="1.1607" height="10.893" ry=".97096" fill="#90a4ae" fill-rule="evenodd"/>
  <circle cx="389.55" cy="297.08" r=".66964" fill="#784421" fill-rule="evenodd"/>
  <circle cx="374.6" cy="297.08" r=".66964" fill="#784421" fill-rule="evenodd"/>
  <circle cx="403.23" cy="644.35" r="3.9286" fill="#333" fill-rule="evenodd"/>
  <circle cx="403.22" cy="644.34" r="2.5238" fill="#424242" fill-rule="evenodd"/>
  <path d="m533.55 292.57c31.821-2.1679 23.675 9.2543 35.595 20.652 10.409-21.255 3.501-24.639 7.7357-32.87-19.165-9.2898-38.236-4.0442-43.652 6.465-0.94703 1.8375-0.0718 3.6484 0.32152 5.7527z" fill="#ff5722" fill-rule="evenodd"/>
  <ellipse cx="573.12" cy="308.5" rx="2.8125" ry="2.9911" fill="#ff5722" fill-rule="evenodd"/>
  <path d="m574.95 307.97c1.5625-1.0268 3.7946-2.8571 3.7946-2.8571l7.8571 1.4286-6.6071 2.1875-4.5982-0.0893 3.3929 0.84821 3.75 5.3125-6.1161-2.9464-2.4107-2.5893z" fill="#ff5722" fill-rule="evenodd"/>
 </g>
</svg>
